<svg xmlns="http://www.w3.org/2000/svg" viewBox="0 0 32 32" enable-background="new 0 0 32 32"><path fill="#015BA1" d="M16.001 32c8.836 0 15.999-7.164 15.999-16 0-8.837-7.163-16-15.999-16-8.837 0-16.001 7.163-16.001 16 0 8.836 7.164 16 16.001 16zm-6.761-18.334h2.894v9.284h-2.894v-9.284zm4.709 0h2.774v1.313c.745-1.219 2.152-1.909 4.291-1.313 2.138.594 1.962 4.25 1.962 4.25v5.033h-2.909v-4.777c0-.541.121-2.179-1.61-2.179-1.734 0-1.625 2.166-1.625 2.166v4.79h-2.883v-9.283zm-3.25-4.615c.926 0 1.676.75 1.676 1.676 0 .926-.75 1.676-1.676 1.676-.926 0-1.676-.75-1.676-1.676 0-.926.75-1.676 1.676-1.676z"/></svg>