<svg xmlns="http://www.w3.org/2000/svg" viewBox="0 0 32 32" enable-background="new 0 0 32 32"><title>Fill 1 + Fill 2</title><desc>Created with Sketch.</desc><g fill="#015BA1"><path d="M14.018 19.588l5.512-3.598-5.512-3.598z"/><path d="M16 0c-8.836 0-16 7.163-16 16 0 8.836 7.164 16 16 16s16-7.164 16-16c0-8.837-7.164-16-16-16zm8.238 22.311c-.874.64-8.238.471-8.238.471s-7.363.169-8.238-.471c-.875-.639-1.546-2.522-1.546-6.321 0 0 .032-2.892.337-4.035.3-1.144.671-1.85 1.109-2.253.436-.404 1.344-.505 8.338-.505s7.902.101 8.34.505c.436.403.806 1.109 1.109 2.253.302 1.143.335 4.035.335 4.035 0 3.799-.671 5.682-1.546 6.321z"/></g></svg>