<svg xmlns="http://www.w3.org/2000/svg" viewBox="0 0 15 10" enable-background="new 0 0 15 10" fill="#005aa1"><path d="M1.003.427c.44-.3 1.093-.25 1.458.111l5.04 4.98 5.038-4.98c.366-.361 1.019-.41 1.458-.111.44.3.5.836.136 1.197l-5.835 5.767c-.197.194-.489.307-.797.307-.308 0-.6-.113-.798-.307l-5.836-5.767c-.161-.159-.239-.351-.239-.543 0-.244.128-.486.375-.654zM14.259 9.769h-13.518c-.409 0-.741-.463-.741-1.036 0-.572.332-1.035.741-1.035h13.517c.41 0 .742.464.742 1.035 0 .573-.332 1.036-.741 1.036"/></svg>
