<svg xmlns="http://www.w3.org/2000/svg" viewBox="0 0 87 46" enable-background="new 0 0 87 46"><path fill="#666" d="M7.057 44.953h1.418v-3.372h-1.418v3.372zm1.417.512c-.13.36-.413.535-.85.535h-.567c-.579 0-1.063-.476-1.063-1.047v-3.372c0-.594.484-1.047 1.063-1.047h.567c.437 0 .72.175.85.535v-.535h1.063v5.466h-1.063v-.535zM17.807 46h-1.063v-.535c-.13.36-.414.535-.851.535h-.567c-.579 0-1.063-.476-1.063-1.047v-4.419h1.063v4.419h1.417v-4.419h1.063v5.466M25.072 46h-1.063c-.579 0-1.063-.476-1.063-1.047v-3.373h-.827v-1.047h.827v-1.628h1.063v1.628h1.063v1.047h-1.063v3.372h1.063v1.048"/><path fill="#666" d="M30.565 44.953h1.418v-3.372h-1.418v3.372zm2.48 0c0 .57-.461 1.047-1.063 1.047h-1.417c-.579 0-1.063-.477-1.063-1.047v-3.372c0-.594.485-1.047 1.063-1.047h1.417c.602 0 1.063.454 1.063 1.047v3.372zM43.441 46h-1.063v-4.42h-1.24v4.42h-1.063v-4.42h-1.24v4.42h-1.063v-5.466h1.063v.535c.13-.361.414-.535.851-.535h.484c.437 0 .72.175.85.535.13-.361.414-.535.851-.535h.508c.603 0 1.063.454 1.063 1.047v4.419"/><path fill="#666" d="M49.229 44.953h1.418v-3.372h-1.418v3.372zm1.418.512c-.13.36-.413.535-.85.535h-.567c-.579 0-1.063-.476-1.063-1.047v-3.372c0-.594.484-1.047 1.063-1.047h.567c.437 0 .72.175.85.535v-.535h1.063v5.466h-1.063v-.535zM58.975 46h-1.063c-.578 0-1.063-.476-1.063-1.047v-3.373h-.827v-1.047h.827v-1.628h1.063v1.628h1.063v1.047h-1.063v3.372h1.063v1.048"/><path fill="#666" d="M63.405 40.534h1.063v5.466h-1.063v-5.466zm.543-.907c-.39 0-.709-.314-.709-.697 0-.384.319-.698.709-.698.39 0 .709.314.709.698 0 .382-.319.697-.709.697zM70.256 44.953h1.418v-3.372h-1.418v3.372zm2.481 0c0 .57-.461 1.047-1.063 1.047h-1.418c-.578 0-1.063-.477-1.063-1.047v-3.372c0-.594.484-1.047 1.063-1.047h1.418c.603 0 1.063.454 1.063 1.047v3.372zM81.006 46h-1.063v-4.42h-1.417v4.42h-1.063v-5.466h1.063v.535c.13-.361.414-.535.851-.535h.567c.603 0 1.063.454 1.063 1.047v4.419"/><path fill="#015BA1" d="M17.932 0h-3.771v10.039l.006.102v13.289c0 1.655-1.507 3.084-3.299 3.084h-3.407v.003h-3.878c-1.792 0-3.3 1.431-3.299 3.084v3.964h7.177v.005h6.892c4.029 0 7.34-3.09 7.34-6.895v-19.343l.004.004v-3.858c-.001-1.974-1.741-3.478-3.765-3.478"/><path fill="#015BA1" d="M52.147 23.43c0 1.655-1.507 3.084-3.299 3.084h-10.691c-1.836 0-3.3-1.427-3.3-3.084v-13.289c-.001-1.654 1.507-3.085 3.299-3.085h10.642c1.842 0 3.348 1.433 3.348 3.085v13.289h.001zm.183-23.43h-17.657c-4.031 0-7.341 3.047-7.34 6.853v19.822c0 3.805 3.313 6.895 7.343 6.895h17.657c4.029 0 7.34-3.09 7.34-6.895v-19.821c-.002-3.807-3.314-6.854-7.343-6.854zM83.417 26.517h-3.877v-.003h-3.407c-1.792 0-3.3-1.429-3.3-3.084v-6.633l.003-.012c0-1.699 1.486-3.083 3.326-3.083h4.183c2.077 0 3.738-1.572 3.738-3.539v-3.539h-7.922c-1.808 0-3.273-1.384-3.322-3.09v-3.534h-.188l-.087.004v-.004h-7.256v26.676c0 3.805 3.311 6.895 7.34 6.895h6.891v-.005h7.177v-3.964c.002-1.654-1.507-3.085-3.299-3.085"/></svg>